# xmcd CD database file
#
# Track frame offsets:
#	150
#	8305
#	18780
#	32837
#	49447
#	66975
#	79242
#	92880
#	107085
#	119925
#	132307
#
# Disc length: 1917 seconds
#
# Revision: 1
# Processed by: cddbd v1.5.1PL0 Copyright (c) Steve Scherf et al.
# Submitted via: CDex 1.50
#
DISCID=93077b0b
DTITLE=LES McCann - Bucket O' Grease
DYEAR=1967
DGENRE=Jazz
TTITLE0=Hey Leroy, Your Mama's Callin' You
TTITLE1=Bang! Bang!
TTITLE2=Music To Watch Girls By
TTITLE3=Watermelon Man
TTITLE4=La Brea
TTITLE5=All
TTITLE6=Red Top
TTITLE7=Yesterday
TTITLE8=Boo-Go-Loo
TTITLE9=Bucket O' Grease
TTITLE10=Fake Out
EXTD=YEAR: 1967
EXTT0=
EXTT1=
EXTT2=
EXTT3=
EXTT4=
EXTT5=
EXTT6=
EXTT7=
EXTT8=
EXTT9=
EXTT10=
PLAYORDER=
